<?xml version="1.0" encoding="UTF-8" standalone="no"?>
<svg
   xmlns:dc="http://purl.org/dc/elements/1.1/"
   xmlns:cc="http://creativecommons.org/ns#"
   xmlns:rdf="http://www.w3.org/1999/02/22-rdf-syntax-ns#"
   xmlns:svg="http://www.w3.org/2000/svg"
   xmlns="http://www.w3.org/2000/svg"
   viewBox="0 0 533.75 463.75"
   height="463.75"
   width="533.75"
   xml:space="preserve"
   version="1.1"
   id="svg2"><metadata
     id="metadata8"><rdf:RDF><cc:Work
         rdf:about=""><dc:format>image/svg+xml</dc:format><dc:type
           rdf:resource="http://purl.org/dc/dcmitype/StillImage" /></cc:Work></rdf:RDF></metadata><defs
     id="defs6"><clipPath
       id="clipPath18"
       clipPathUnits="userSpaceOnUse"><path
         id="path20"
         d="M 0,0 427,0 427,371 0,371 0,0 Z" /></clipPath></defs><g
     transform="matrix(1.25,0,0,-1.25,0,463.75)"
     id="g10"><g
       id="g12" /><g
       id="g14"><g
         clip-path="url(#clipPath18)"
         id="g16"><path
           id="path22"
           style="fill:#ffffff;fill-opacity:1;fill-rule:nonzero;stroke:none"
           d="m -80.5,407.5 576,0 0,-733 -576,0 0,733 z" /><path
           id="path24"
           style="fill:#ffffff;fill-opacity:1;fill-rule:nonzero;stroke:none"
           d="m 43.50006,368.5 98.00004,0 0,-36 -98.00004,0 0,36 z" /><g
           transform="matrix(1,0,0,-1,-79.5,406.5)"
           id="g26"><path
             id="path28"
             style="fill:none;stroke:#000000;stroke-width:1;stroke-linecap:round;stroke-linejoin:round;stroke-miterlimit:10;stroke-dasharray:none;stroke-opacity:1"
             d="m 123.0001,38 98,0 0,36 -98,0 0,-36 z" /></g><g
           transform="matrix(1,0,0,-1,92.00006,351)"
           id="g30"><text
             id="text32"
             style="font-variant:normal;font-weight:normal;font-size:12px;font-family:Helvetica;-inkscape-font-specification:Helvetica;writing-mode:lr-tb;fill:#000000;fill-opacity:1;fill-rule:nonzero;stroke:none"
             transform="translate(-39.01465,4)"><tspan
               id="tspan34"
               y="0"
               x="0 6.6743999 13.3488 16.6824 23.3568 33.352798 40.027199 46.027199 52.027199 58.027199 61.360802 68.035202">datum_system</tspan></text>
</g><path
           id="path36"
           style="fill:#ffffff;fill-opacity:1;fill-rule:nonzero;stroke:none"
           d="m 2.5,257.5 180.0001,0 0,-47 -180.0001,0 0,47 z" /><g
           transform="matrix(1,0,0,-1,-79.5,406.5)"
           id="g38"><path
             id="path40"
             style="fill:none;stroke:#000000;stroke-width:1;stroke-linecap:round;stroke-linejoin:round;stroke-miterlimit:10;stroke-dasharray:none;stroke-opacity:1"
             d="m 82,149 180.0001,0 0,47 L 82,196 82,149 Z" /></g><g
           transform="matrix(1,0,0,-1,92.00006,234.5)"
           id="g42"><text
             id="text44"
             style="font-variant:normal;font-weight:normal;font-size:12px;font-family:Helvetica;-inkscape-font-specification:Helvetica;writing-mode:lr-tb;fill:#000000;fill-opacity:1;fill-rule:nonzero;stroke:none"
             transform="translate(-20.0127,-10)"><tspan
               id="tspan46"
               y="0"
               x="0 6.6743999 13.3488 16.6824 23.3568 33.352798">datum_</tspan></text>
</g><g
           transform="matrix(1,0,0,-1,92.00006,234.5)"
           id="g48"><text
             id="text50"
             style="font-variant:normal;font-weight:normal;font-size:12px;font-family:Helvetica;-inkscape-font-specification:Helvetica;writing-mode:lr-tb;fill:#000000;fill-opacity:1;fill-rule:nonzero;stroke:none"
             transform="translate(-28.68457,4)"><tspan
               id="tspan52"
               y="0"
               x="0 3.9960001 10.6704 14.004 20.6784 24.6744 31.348801 38.023201 44.023201 50.697601">reference_</tspan></text>
</g><g
           transform="matrix(1,0,0,-1,92.00006,234.5)"
           id="g54"><text
             id="text56"
             style="font-variant:normal;font-weight:normal;font-size:12px;font-family:Helvetica;-inkscape-font-specification:Helvetica;writing-mode:lr-tb;fill:#000000;fill-opacity:1;fill-rule:nonzero;stroke:none"
             transform="translate(-35.0127,18)"><tspan
               id="tspan58"
               y="0"
               x="0 6 12.6744 22.670401 29.344801 36.019199 40.015202 43.348801 53.344799 60.019199 66.693604">compartment</tspan></text>
</g><path
           id="path60"
           style="fill:#ffffff;fill-opacity:1;fill-rule:nonzero;stroke:none"
           d="m 171,368.5 215.5,0 0,-36 -215.5,0 0,36 z" /><g
           transform="matrix(1,0,0,-1,-79.5,406.5)"
           id="g62"><path
             id="path64"
             style="fill:none;stroke:#000000;stroke-width:1;stroke-linecap:round;stroke-linejoin:round;stroke-miterlimit:10;stroke-dasharray:none;stroke-opacity:1"
             d="m 250.5,38 215.5,0 0,36 -215.5,0 0,-36 z" /></g><g
           transform="matrix(1,0,0,-1,278.25,351)"
           id="g66"><text
             id="text68"
             style="font-variant:normal;font-weight:normal;font-size:12px;font-family:Helvetica;-inkscape-font-specification:Helvetica;writing-mode:lr-tb;fill:#000000;fill-opacity:1;fill-rule:nonzero;stroke:none"
             transform="translate(-86.38184,4)"><tspan
               id="tspan70"
               y="0"
               x="0 3.9960001 12 20.004 28.007999 32.004002 35.337601 42.012001 48.686401 55.360802 62.035198 66.031197 72.705597 75.372002 82.046402 88.720802 95.395203 98.728798 105.4032 115.3992 122.0736 126.0696 132.744 136.07761 142.752 146.748 153.42239 160.0968 166.0968">(ABS) general_datum_reference</tspan></text>
</g><path
           id="path72"
           style="fill:#ffffff;fill-opacity:1;fill-rule:nonzero;stroke:none"
           d="m 200.0021,257.5 67.4997,0 0,-47 -67.4997,0 0,47 z" /><g
           transform="matrix(1,0,0,-1,-79.5,406.5)"
           id="g74"><path
             id="path76"
             style="fill:none;stroke:#000000;stroke-width:1;stroke-linecap:round;stroke-linejoin:round;stroke-miterlimit:10;stroke-dasharray:none;stroke-opacity:1"
             d="m 279.5021,149 67.4997,0 0,47 -67.4997,0 0,-47 z" /></g><g
           transform="matrix(1,0,0,-1,233.2519,234.5)"
           id="g78"><text
             id="text80"
             style="font-variant:normal;font-weight:normal;font-size:12px;font-family:Helvetica;-inkscape-font-specification:Helvetica;writing-mode:lr-tb;fill:#000000;fill-opacity:1;fill-rule:nonzero;stroke:none"
             transform="translate(-20.0127,-10)"><tspan
               id="tspan82"
               y="0"
               x="0 6.6743999 13.3488 16.6824 23.3568 33.352798">datum_</tspan></text>
</g><g
           transform="matrix(1,0,0,-1,233.2519,234.5)"
           id="g84"><text
             id="text86"
             style="font-variant:normal;font-weight:normal;font-size:12px;font-family:Helvetica;-inkscape-font-specification:Helvetica;writing-mode:lr-tb;fill:#000000;fill-opacity:1;fill-rule:nonzero;stroke:none"
             transform="translate(-28.68457,4)"><tspan
               id="tspan88"
               y="0"
               x="0 3.9960001 10.6704 14.004 20.6784 24.6744 31.348801 38.023201 44.023201 50.697601">reference_</tspan></text>
</g><g
           transform="matrix(1,0,0,-1,233.2519,234.5)"
           id="g90"><text
             id="text92"
             style="font-variant:normal;font-weight:normal;font-size:12px;font-family:Helvetica;-inkscape-font-specification:Helvetica;writing-mode:lr-tb;fill:#000000;fill-opacity:1;fill-rule:nonzero;stroke:none"
             transform="translate(-21.3457,18)"><tspan
               id="tspan94"
               y="0"
               x="0 6.6743999 9.3408003 16.0152 26.0112 32.6856 39.360001">element</tspan></text>
</g><path
           id="path96"
           style="fill:#ffffff;fill-opacity:1;fill-rule:nonzero;stroke:none"
           d="m 65.25006,149.5 54.50004,0 0,-19.75 -54.50004,0 0,19.75 z" /><g
           transform="matrix(1,0,0,-1,-79.5,406.5)"
           id="g98"><path
             id="path100"
             style="fill:none;stroke:#000000;stroke-width:1;stroke-linecap:round;stroke-linejoin:round;stroke-miterlimit:10;stroke-dasharray:none;stroke-opacity:1"
             d="m 144.7501,257 54.5,0 0,19.75 -54.5,0 0,-19.75 z" /></g><g
           transform="matrix(1,0,0,-1,92.00006,140.125)"
           id="g102"><text
             id="text104"
             style="font-variant:normal;font-weight:normal;font-size:12px;font-family:Helvetica;-inkscape-font-specification:Helvetica;writing-mode:lr-tb;fill:#000000;fill-opacity:1;fill-rule:nonzero;stroke:none"
             transform="translate(-16.67578,4)"><tspan
               id="tspan106"
               y="0"
               x="0 6.6743999 13.3488 16.687201 23.361601">datum</tspan></text>
</g><g
           transform="matrix(1,0,0,-1,-79.5,406.5)"
           id="g108"><path
             id="path110"
             style="fill:none;stroke:#a9a9a9;stroke-width:1;stroke-linecap:butt;stroke-linejoin:miter;stroke-miterlimit:10;stroke-dasharray:4, 4;stroke-dashoffset:0;stroke-opacity:1"
             d="m 329.5,369 175,0 0,36 -175,0 0,-36 z" /></g><g
           transform="matrix(1,0,0,-1,337,20)"
           id="g112"><text
             id="text114"
             style="font-variant:normal;font-weight:normal;font-size:12px;font-family:Helvetica;-inkscape-font-specification:Helvetica;writing-mode:lr-tb;fill:#000000;fill-opacity:1;fill-rule:nonzero;stroke:none"
             transform="translate(-82.5,-7)"><tspan
               id="tspan116"
               y="0"
               x="0 3.9960001 12 20.004 24">(EX) </tspan></text>
</g><g
           transform="matrix(1,0,0,-1,337,20)"
           id="g118"><text
             id="text120"
             style="font-variant:normal;font-weight:normal;font-size:12px;font-family:Helvetica;-inkscape-font-specification:Helvetica;writing-mode:lr-tb;fill:#000000;fill-opacity:1;fill-rule:nonzero;stroke:none"
             transform="translate(-82.5,7)"><tspan
               id="tspan122"
               y="0"
               x="0 6.6743999 13.3488 16.6824 23.3568 33.352798 40.027199 44.023201 50.697601 54.0312 60.705601 64.701599 71.375999 78.0504 84.0504 90.7248 97.3992 107.3952 114.0696 120.744 123.4104 129.4104 136.08479">datum_reference_modifer</tspan></text>
</g><g
           transform="matrix(1,0,0,-1,-79.5,406.5)"
           id="g124"><path
             id="path126"
             style="fill:none;stroke:#000000;stroke-width:1;stroke-linecap:butt;stroke-linejoin:miter;stroke-miterlimit:10;stroke-dasharray:none;stroke-opacity:1"
             d="m 172.0001,74 0,8.5 0,58 0,2" /></g><g
           transform="matrix(1,0,0,-1,-79.5,406.5)"
           id="g128"><path
             id="path130"
             style="fill:none;stroke:#000000;stroke-width:1;stroke-linecap:butt;stroke-linejoin:miter;stroke-miterlimit:10;stroke-dasharray:none;stroke-opacity:1"
             d="m 169.8787,143.3787 c 1.1716,-1.1716 3.0711,-1.1716 4.2427,0 1.1716,1.1715 1.1716,3.071 0,4.2426 -1.1716,1.1716 -3.0711,1.1716 -4.2427,0 -1.1715,-1.1715 -1.1715,-3.071 0,-4.2426" /></g><g
           transform="matrix(1,0,0,-1,-79.5,406.5)"
           id="g132"><path
             id="path134"
             style="fill:none;stroke:#000000;stroke-width:3;stroke-linecap:butt;stroke-linejoin:miter;stroke-miterlimit:10;stroke-dasharray:none;stroke-opacity:1"
             d="m 302.5597,110.9 10.6922,0 0,24.2 0,4" /></g><g
           transform="matrix(1,0,0,-1,-79.5,406.5)"
           id="g136"><path
             id="path138"
             style="fill:none;stroke:#000000;stroke-width:3;stroke-linecap:butt;stroke-linejoin:miter;stroke-miterlimit:10;stroke-dasharray:none;stroke-opacity:1"
             d="m 310.2821,140.3302 c 1.6402,-1.6402 4.2995,-1.6402 5.9397,0 1.6402,1.6401 1.6402,4.2994 0,5.9396 -1.6402,1.6403 -4.2995,1.6403 -5.9397,0 -1.6402,-1.6401 -1.6402,-4.2994 0,-5.9396" /></g><g
           transform="matrix(1,0,0,-1,-79.5,406.5)"
           id="g140"><path
             id="path142"
             style="fill:none;stroke:#000000;stroke-width:3;stroke-linecap:butt;stroke-linejoin:miter;stroke-miterlimit:10;stroke-dasharray:none;stroke-opacity:1"
             d="m 302.5597,74 0,13.9 0.4404,23.1 -81,0 0.3604,25.1115 0,4" /></g><g
           transform="matrix(1,0,0,-1,-79.5,406.5)"
           id="g144"><path
             id="path146"
             style="fill:none;stroke:#000000;stroke-width:3;stroke-linecap:butt;stroke-linejoin:miter;stroke-miterlimit:10;stroke-dasharray:none;stroke-opacity:1"
             d="m 219.3906,141.3417 c 1.6402,-1.6402 4.2995,-1.6402 5.9397,0 1.6402,1.6402 1.6402,4.2995 0,5.9397 -1.6402,1.6402 -4.2995,1.6402 -5.9397,0 -1.6402,-1.6402 -1.6402,-4.2995 0,-5.9397" /></g><g
           transform="matrix(1,0,0,-1,-79.5,406.5)"
           id="g148"><path
             id="path150"
             style="fill:none;stroke:#000000;stroke-width:1;stroke-linecap:butt;stroke-linejoin:miter;stroke-miterlimit:10;stroke-dasharray:4, 4;stroke-dashoffset:0;stroke-opacity:1"
             d="m 416.5727,74 0,8.5 0.402,277.5 0,2" /></g><g
           transform="matrix(1,0,0,-1,-79.5,406.5)"
           id="g152"><path
             id="path154"
             style="fill:none;stroke:#000000;stroke-width:1;stroke-linecap:butt;stroke-linejoin:miter;stroke-miterlimit:10;stroke-dasharray:none;stroke-opacity:1"
             d="m 414.8534,362.8787 c 1.1716,-1.1716 3.0711,-1.1716 4.2427,0 1.1715,1.1716 1.1715,3.0711 0,4.2426 -1.1716,1.1716 -3.0711,1.1716 -4.2427,0 -1.1715,-1.1715 -1.1715,-3.071 0,-4.2426" /></g><g
           transform="matrix(1,0,0,-1,-79.5,406.5)"
           id="g156"><path
             id="path158"
             style="fill:none;stroke:#a9a9a9;stroke-width:1;stroke-linecap:butt;stroke-linejoin:miter;stroke-miterlimit:10;stroke-dasharray:4, 4;stroke-dashoffset:0;stroke-opacity:1"
             d="m 216.5,257 122,0 0,19.75 -122,0 0,-19.75 z" /></g><g
           transform="matrix(1,0,0,-1,197.5,140.125)"
           id="g160"><text
             id="text162"
             style="font-variant:normal;font-weight:normal;font-size:12px;font-family:Helvetica;-inkscape-font-specification:Helvetica;writing-mode:lr-tb;fill:#000000;fill-opacity:1;fill-rule:nonzero;stroke:none"
             transform="translate(-56,1.125)"><tspan
               id="tspan164"
               y="0"
               x="0 6 12.6744 22.670401 32.666401 39.340801 46.015202 52.689602 59.363998 66.038399 69.372002 76.046402 86.042397 92.716797 95.383202 98.049599 104.0496">common_datum_list</tspan></text>
</g><g
           transform="matrix(1,0,0,-1,-79.5,406.5)"
           id="g166"><path
             id="path168"
             style="fill:none;stroke:#000000;stroke-width:1;stroke-linecap:butt;stroke-linejoin:miter;stroke-miterlimit:10;stroke-dasharray:none;stroke-opacity:1"
             d="m 279.5017,256.5091 0,-8.5 0,-35.5091 8.4983,0 7.8084,0 0,-8 0,-2" /></g><g
           transform="matrix(1,0,0,-1,-79.5,406.5)"
           id="g170"><path
             id="path172"
             style="fill:none;stroke:#000000;stroke-width:1;stroke-linecap:butt;stroke-linejoin:miter;stroke-miterlimit:10;stroke-dasharray:none;stroke-opacity:1"
             d="m 297.9297,201.6213 c -1.1715,1.1716 -3.071,1.1716 -4.2426,0 -1.1716,-1.1716 -1.1716,-3.0711 0,-4.2426 1.1716,-1.1716 3.0711,-1.1716 4.2426,0 1.1716,1.1716 1.1716,3.0711 0,4.2426" /></g><g
           transform="matrix(1,0,0,-1,-79.5,406.5)"
           id="g174"><path
             id="path176"
             style="fill:none;stroke:#000000;stroke-width:1;stroke-linecap:butt;stroke-linejoin:miter;stroke-miterlimit:10;stroke-dasharray:none;stroke-opacity:1"
             d="m 358.25,74 0,8.5 0,251 -30.25,0 -2,0" /></g><g
           transform="matrix(1,0,0,-1,-79.5,406.5)"
           id="g178"><path
             id="path180"
             style="fill:none;stroke:#000000;stroke-width:1;stroke-linecap:butt;stroke-linejoin:miter;stroke-miterlimit:10;stroke-dasharray:none;stroke-opacity:1"
             d="m 325.1213,331.3787 c 1.1716,1.1716 1.1716,3.071 0,4.2426 -1.1716,1.1716 -3.0711,1.1716 -4.2426,0 -1.1716,-1.1716 -1.1716,-3.071 0,-4.2426 1.1715,-1.1716 3.071,-1.1716 4.2426,0" /></g><path
           id="path182"
           style="fill:#ffffff;fill-opacity:1;fill-rule:nonzero;stroke:none"
           d="m 86,84.5 154,0 0,-23 -154,0 0,23 z" /><g
           transform="matrix(1,0,0,-1,-79.5,406.5)"
           id="g184"><path
             id="path186"
             style="fill:none;stroke:#000000;stroke-width:1;stroke-linecap:round;stroke-linejoin:round;stroke-miterlimit:10;stroke-dasharray:4, 4;stroke-dashoffset:0;stroke-opacity:1"
             d="m 165.5,322 154,0 0,23 -154,0 0,-23 z" /></g><g
           transform="matrix(1,0,0,-1,162.5,73.5)"
           id="g188"><text
             id="text190"
             style="font-variant:normal;font-weight:normal;font-size:12px;font-family:Helvetica;-inkscape-font-specification:Helvetica;writing-mode:lr-tb;fill:#000000;fill-opacity:1;fill-rule:nonzero;stroke:none"
             transform="translate(-71.7041,4)"><tspan
               id="tspan192"
               y="0"
               x="0 6.6743999 13.3488 16.6824 23.3568 33.352798 40.027199 46.701599 50.697601 57.372002 63.372002 70.046402 80.042397 90.038399 96.712799 103.3872 110.0616 116.736 123.4104 126.744 133.4184">datum_or_common_datum</tspan></text>
</g><path
           id="path194"
           style="fill:#ffffff;fill-opacity:1;fill-rule:nonzero;stroke:none"
           d="m 168.5017,186.8076 62,0 0,-24 -62,0 0,24 z" /><g
           transform="matrix(1,0,0,-1,199.5017,174.8076)"
           id="g196"><text
             id="text198"
             style="font-variant:normal;font-weight:normal;font-size:12px;font-family:Helvetica;-inkscape-font-specification:Helvetica;writing-mode:lr-tb;fill:#000000;fill-opacity:1;fill-rule:nonzero;stroke:none"
             transform="translate(-25.90723,4)"><tspan
               id="tspan200"
               y="0"
               x="0 6.6743999 10.008 18.011999 25.131599 28.4652 31.7988 38.473202 41.806801 48.481201">LIST [2:?]</tspan></text>
</g><path
           id="path202"
           style="fill:#ffffff;fill-opacity:1;fill-rule:nonzero;stroke:none"
           d="m 259.75,119 37,0 0,-23.99997 -37,0 0,23.99997 z" /><g
           transform="matrix(1,0,0,-1,278.25,107)"
           id="g204"><text
             id="text206"
             style="font-variant:normal;font-weight:normal;font-size:12px;font-family:Helvetica;-inkscape-font-specification:Helvetica;writing-mode:lr-tb;fill:#000000;fill-opacity:1;fill-rule:nonzero;stroke:none"
             transform="translate(-13.01074,4)"><tspan
               id="tspan208"
               y="0"
               x="0 6.6743999 13.3488 19.348801">base</tspan></text>
</g><path
           id="path210"
           style="fill:#ffffff;fill-opacity:1;fill-rule:nonzero;stroke:none"
           d="m 289.8169,167.9874 94,0 0,-24 -94,0 0,24 z" /><g
           transform="matrix(1,0,0,-1,336.8169,155.9874)"
           id="g212"><text
             id="text214"
             style="font-variant:normal;font-weight:normal;font-size:12px;font-family:Helvetica;-inkscape-font-specification:Helvetica;writing-mode:lr-tb;fill:#000000;fill-opacity:1;fill-rule:nonzero;stroke:none"
             transform="translate(-41.68359,4)"><tspan
               id="tspan216"
               y="0"
               x="0 9.9960003 16.670401 23.344801 26.0112 32.0112 38.6856 42.681599 48.681599 52.015202 60.019199 63.352798 70.027199 73.360802 80.035202">modifers S[1:?]</tspan></text>
</g><g
           transform="matrix(1,0,0,-1,-79.5,406.5)"
           id="g218"><path
             id="path220"
             style="fill:none;stroke:#000000;stroke-width:1;stroke-linecap:butt;stroke-linejoin:miter;stroke-miterlimit:10;stroke-dasharray:none;stroke-opacity:1"
             d="m 242.5,322 0,-8.5 0,-14 -70.4999,0 0,-14.25 0,-2" /></g><g
           transform="matrix(1,0,0,-1,-79.5,406.5)"
           id="g222"><path
             id="path224"
             style="fill:none;stroke:#000000;stroke-width:1;stroke-linecap:butt;stroke-linejoin:miter;stroke-miterlimit:10;stroke-dasharray:none;stroke-opacity:1"
             d="m 174.1214,282.3713 c -1.1716,1.1716 -3.0711,1.1716 -4.2427,0 -1.1715,-1.1716 -1.1715,-3.0711 0,-4.2426 1.1716,-1.1716 3.0711,-1.1716 4.2427,0 1.1716,1.1716 1.1716,3.0711 0,4.2426" /></g><g
           transform="matrix(1,0,0,-1,-79.5,406.5)"
           id="g226"><path
             id="path228"
             style="fill:none;stroke:#000000;stroke-width:1;stroke-linecap:butt;stroke-linejoin:miter;stroke-miterlimit:10;stroke-dasharray:none;stroke-opacity:1"
             d="m 242.5,321.5 0,-8.5 0,-14 28.4622,0 0,-13.3279 0,-2" /></g><g
           transform="matrix(1,0,0,-1,-79.5,406.5)"
           id="g230"><path
             id="path232"
             style="fill:none;stroke:#000000;stroke-width:1;stroke-linecap:butt;stroke-linejoin:miter;stroke-miterlimit:10;stroke-dasharray:none;stroke-opacity:1"
             d="m 273.0754,282.7728 c -1.1609,1.1822 -3.0603,1.1994 -4.2425,0.0386 -1.1822,-1.1609 -1.1994,-3.0603 -0.0386,-4.2425 1.1609,-1.1822 3.0603,-1.1994 4.2425,-0.0386 1.1822,1.1609 1.1994,3.0603 0.0386,4.2425" /></g><path
           id="path234"
           style="fill:#ffffff;fill-opacity:1;fill-rule:nonzero;stroke:none"
           d="m 38.00006,325 108.00004,0 0,-24 -108.00004,0 0,24 z" /><g
           transform="matrix(1,0,0,-1,92.00006,313)"
           id="g236"><text
             id="text238"
             style="font-variant:normal;font-weight:normal;font-size:12px;font-family:Helvetica;-inkscape-font-specification:Helvetica;writing-mode:lr-tb;fill:#000000;fill-opacity:1;fill-rule:nonzero;stroke:none"
             transform="translate(-48.69727,4)"><tspan
               id="tspan240"
               y="0"
               x="0 6 12.6744 19.348801 25.348801 28.6824 31.348801 34.6824 41.3568 48.0312 54.705601 58.0392 64.0392 67.372803 74.047203 77.380798 84.055199 87.388802 94.063202">constituents L[1:3]</tspan></text>
</g><g
           transform="matrix(1,0,0,-1,211.5,308)"
           id="g242"><text
             id="text244"
             style="font-variant:normal;font-weight:normal;font-size:12px;font-family:Helvetica;-inkscape-font-specification:Helvetica;writing-mode:lr-tb;fill:#000000;fill-opacity:1;fill-rule:nonzero;stroke:none"
             transform="translate(-3.336914,4)"><tspan
               id="tspan246"
               y="0"
               x="0">1</tspan></text>
</g></g></g></g></svg>