<?xml version="1.0" encoding="UTF-8" standalone="no"?>
<svg
   xmlns:dc="http://purl.org/dc/elements/1.1/"
   xmlns:cc="http://creativecommons.org/ns#"
   xmlns:rdf="http://www.w3.org/1999/02/22-rdf-syntax-ns#"
   xmlns:svg="http://www.w3.org/2000/svg"
   xmlns="http://www.w3.org/2000/svg"
   viewBox="0 0 520 336.25"
   height="336.25"
   width="520"
   xml:space="preserve"
   version="1.1"
   id="svg2"><metadata
     id="metadata8"><rdf:RDF><cc:Work
         rdf:about=""><dc:format>image/svg+xml</dc:format><dc:type
           rdf:resource="http://purl.org/dc/dcmitype/StillImage" /></cc:Work></rdf:RDF></metadata><defs
     id="defs6"><clipPath
       id="clipPath18"
       clipPathUnits="userSpaceOnUse"><path
         id="path20"
         d="M 0,0 416,0 416,269 0,269 0,0 Z" /></clipPath></defs><g
     transform="matrix(1.25,0,0,-1.25,0,336.25)"
     id="g10"><g
       id="g12" /><g
       id="g14"><g
         clip-path="url(#clipPath18)"
         id="g16"><path
           id="path22"
           style="fill:#ffffff;fill-opacity:1;fill-rule:nonzero;stroke:none"
           d="M 0,0 416,0 416,269 0,269 0,0 Z" /><path
           id="path24"
           style="fill:#ffffff;fill-opacity:1;fill-rule:nonzero;stroke:none"
           d="M 0,269 416,269 416,0 0,0 0,269 Z" /><g
           transform="matrix(1,0,0,-1,-79,318)"
           id="g26"><path
             id="path28"
             style="fill:none;stroke:#000000;stroke-width:1;stroke-linecap:round;stroke-linejoin:round;stroke-miterlimit:10;stroke-dasharray:none;stroke-opacity:1"
             d="m 317.5,199.5 177,0 0,36 -177,0 0,-36 z" /></g><g
           transform="matrix(1,0,0,-1,326.5,101)"
           id="g30"><text
             id="text32"
             style="font-variant:normal;font-weight:normal;font-size:11px;font-family:HelveticaNeue;-inkscape-font-specification:HelveticaNeue;writing-mode:lr-tb;fill:#000000;fill-opacity:1;fill-rule:nonzero;stroke:none"
             transform="translate(-83.5,-2.307999)"><tspan
               id="tspan34"
               y="0"
               x="0 9.3830004 15.29 21.406 27.313 33.626999 39.534 48.917 54.824001 60.939999 64.404999 69.904999 73.370003 79.277 84.777 91.091003 97.207001 100.672 106.579 112.486 117.986 123.486 128.98599 134.89301 141.009 146.916 156.299">management_resources_schema</tspan></text>
</g><g
           transform="matrix(1,0,0,-1,326.5,101)"
           id="g36"><text
             id="text38"
             style="font-variant:normal;font-weight:normal;font-size:11px;font-family:HelveticaNeue;-inkscape-font-specification:HelveticaNeue;writing-mode:lr-tb;fill:#000000;fill-opacity:1;fill-rule:nonzero;stroke:none"
             transform="translate(-83.5,10)"><tspan
               id="tspan40"
               y="0"
               x="0 2.849 9.9770002 18.337 21.395 27.511 33.626999 39.743 45.859001 51.974998 56.254002 62.369999">ISO 10303-41</tspan></text>
</g><g
           transform="matrix(1,0,0,-1,-79,318)"
           id="g42"><path
             id="path44"
             style="fill:none;stroke:#000000;stroke-width:1;stroke-linecap:round;stroke-linejoin:round;stroke-miterlimit:10;stroke-dasharray:none;stroke-opacity:1"
             d="m 317.5,52.5 177,0 0,36 -177,0 0,-36 z" /></g><g
           transform="matrix(1,0,0,-1,326.5,248)"
           id="g46"><text
             id="text48"
             style="font-variant:normal;font-weight:normal;font-size:11px;font-family:HelveticaNeue;-inkscape-font-specification:HelveticaNeue;writing-mode:lr-tb;fill:#000000;fill-opacity:1;fill-rule:nonzero;stroke:none"
             transform="translate(-83.5,-2.307999)"><tspan
               id="tspan50"
               y="0"
               x="0 6.5229998 9.9879999 16.302 22.825001 28.941 34.848 38.313 43.813 50.335999 56.243 61.941002 68.056999 70.499001 73.963997 76.405998 82.720001 88.835999 94.335999 99.835999 105.743 111.859 117.766 127.149">product_defnition_schema</tspan></text>
</g><g
           transform="matrix(1,0,0,-1,326.5,248)"
           id="g52"><text
             id="text54"
             style="font-variant:normal;font-weight:normal;font-size:11px;font-family:HelveticaNeue;-inkscape-font-specification:HelveticaNeue;writing-mode:lr-tb;fill:#000000;fill-opacity:1;fill-rule:nonzero;stroke:none"
             transform="translate(-83.5,10)"><tspan
               id="tspan56"
               y="0"
               x="0 2.849 9.9770002 18.337 21.395 27.511 33.626999 39.743 45.859001 51.974998 56.254002 62.369999">ISO 10303-41</tspan></text>
</g><g
           transform="matrix(1,0,0,-1,-79,318)"
           id="g58"><path
             id="path60"
             style="fill:none;stroke:#000000;stroke-width:1;stroke-linecap:round;stroke-linejoin:round;stroke-miterlimit:10;stroke-dasharray:none;stroke-opacity:1"
             d="m 317.5,101.5 177,0 0,36 -177,0 0,-36 z" /></g><g
           transform="matrix(1,0,0,-1,326.5,199)"
           id="g62"><text
             id="text64"
             style="font-variant:normal;font-weight:normal;font-size:11px;font-family:HelveticaNeue;-inkscape-font-specification:HelveticaNeue;writing-mode:lr-tb;fill:#000000;fill-opacity:1;fill-rule:nonzero;stroke:none"
             transform="translate(-83.5,-2.307999)"><tspan
               id="tspan66"
               y="0"
               x="0 5.9070001 12.43 18.952999 21.395 23.837 29.743999 35.651001 39.116001 41.557999 47.872002 53.987999 59.487999 65.394997 71.709 77.824997 81.290001 87.196999 92.894997 96.360001 101.86 107.36 113.267 119.383 125.29 134.673">application_context_schema</tspan></text>
</g><g
           transform="matrix(1,0,0,-1,326.5,199)"
           id="g68"><text
             id="text70"
             style="font-variant:normal;font-weight:normal;font-size:11px;font-family:HelveticaNeue;-inkscape-font-specification:HelveticaNeue;writing-mode:lr-tb;fill:#000000;fill-opacity:1;fill-rule:nonzero;stroke:none"
             transform="translate(-83.5,10)"><tspan
               id="tspan72"
               y="0"
               x="0 2.849 9.9770002 18.337 21.395 27.511 33.626999 39.743 45.859001 51.974998 56.254002 62.369999">ISO 10303-41</tspan></text>
</g><g
           transform="matrix(1,0,0,-1,-79,318)"
           id="g74"><path
             id="path76"
             style="fill:none;stroke:#000000;stroke-width:1;stroke-linecap:round;stroke-linejoin:round;stroke-miterlimit:10;stroke-dasharray:none;stroke-opacity:1"
             d="m 317.5,150.5 177,0 0,36 -177,0 0,-36 z" /></g><g
           transform="matrix(1,0,0,-1,326.5,150)"
           id="g78"><text
             id="text80"
             style="font-variant:normal;font-weight:normal;font-size:11px;font-family:HelveticaNeue;-inkscape-font-specification:HelveticaNeue;writing-mode:lr-tb;fill:#000000;fill-opacity:1;fill-rule:nonzero;stroke:none"
             transform="translate(-83.5,-2.307999)"><tspan
               id="tspan82"
               y="0"
               x="0 6.5229998 12.837 18.743999 24.860001 34.243 40.150002 46.265999 49.730999 55.230999 60.730999 66.638 72.753998 78.661003 88.043999">document_schema</tspan></text>
</g><g
           transform="matrix(1,0,0,-1,326.5,150)"
           id="g84"><text
             id="text86"
             style="font-variant:normal;font-weight:normal;font-size:11px;font-family:HelveticaNeue;-inkscape-font-specification:HelveticaNeue;writing-mode:lr-tb;fill:#000000;fill-opacity:1;fill-rule:nonzero;stroke:none"
             transform="translate(-83.5,10)"><tspan
               id="tspan88"
               y="0"
               x="0 2.849 9.9770002 18.337 21.395 27.511 33.626999 39.743 45.859001 51.974998 56.254002 62.369999">ISO 10303-41</tspan></text>
</g><g
           transform="matrix(1,0,0,-1,-79,318)"
           id="g90"><path
             id="path92"
             style="fill:none;stroke:#000000;stroke-width:1;stroke-linecap:round;stroke-linejoin:round;stroke-miterlimit:10;stroke-dasharray:none;stroke-opacity:1"
             d="m 79.5,52.5 165,0 0,36 -165,0 0,-36 z" /></g><g
           transform="matrix(1,0,0,-1,82.75,248)"
           id="g94"><text
             id="text96"
             style="font-variant:normal;font-weight:normal;font-size:11px;font-family:HelveticaNeue;-inkscape-font-specification:HelveticaNeue;writing-mode:lr-tb;fill:#000000;fill-opacity:1;fill-rule:nonzero;stroke:none"
             transform="translate(-77.25,-8.461998)"><tspan
               id="tspan98"
               y="0"
               x="0 6.5229998 9.9879999 16.302 22.825001 28.941 34.848 38.313 43.813 49.720001 55.835999 62.359001 67.859001 77.241997 83.149002 89.264999 95.380997 98.637001 104.544 110.451 113.916 120.032 123.695 126.137 132.25301 138.567">product_and_manufacturing_</tspan></text>
</g><g
           transform="matrix(1,0,0,-1,82.75,248)"
           id="g100"><text
             id="text102"
             style="font-variant:normal;font-weight:normal;font-size:11px;font-family:HelveticaNeue;-inkscape-font-specification:HelveticaNeue;writing-mode:lr-tb;fill:#000000;fill-opacity:1;fill-rule:nonzero;stroke:none"
             transform="translate(-77.25,3.846001)"><tspan
               id="tspan104"
               y="0"
               x="0 5.9070001 12.023 18.139 24.452999 27.917999 33.825001 37.290001 39.731998 46.046001 52.161999 57.661999 64.184998 67.650002 73.556999 79.056999 84.963997 91.080002 94.544998 100.452 103.917 106.359 112.673">annotation_presentation</tspan></text>
</g><g
           transform="matrix(1,0,0,-1,82.75,248)"
           id="g106"><text
             id="text108"
             style="font-variant:normal;font-weight:normal;font-size:11px;font-family:HelveticaNeue;-inkscape-font-specification:HelveticaNeue;writing-mode:lr-tb;fill:#000000;fill-opacity:1;fill-rule:nonzero;stroke:none"
             transform="translate(-77.25,16.154)"><tspan
               id="tspan110"
               y="0"
               x="0 2.849 9.9770002 18.337 22 28.313999 35.442001 38.5 44.616001 50.731998 56.848 62.964001 69.080002 73.359001 79.474998 85.591003 91.707001">ISO/TS 10303-1812</tspan></text>
</g><g
           transform="matrix(1,0,0,-1,-79,318)"
           id="g112"><path
             id="path114"
             style="fill:none;stroke:#000000;stroke-width:1;stroke-linecap:round;stroke-linejoin:round;stroke-miterlimit:10;stroke-dasharray:none;stroke-opacity:1"
             d="m 79.5,205.5 165,0 0,61 -165,0 0,-61 z" /></g><g
           transform="matrix(1,0,0,-1,82.75,82.5)"
           id="g116"><text
             id="text118"
             style="font-variant:normal;font-weight:normal;font-size:11px;font-family:HelveticaNeue;-inkscape-font-specification:HelveticaNeue;writing-mode:lr-tb;fill:#000000;fill-opacity:1;fill-rule:nonzero;stroke:none"
             transform="translate(-77.25,-14.616)"><tspan
               id="tspan120"
               y="0"
               x="0 6.5229998 9.9879999 16.302 22.825001 28.941 34.848 38.313 43.813 49.720001 55.835999 62.359001 67.859001 77.241997 83.149002 89.264999 95.380997 98.637001 104.544 110.451 113.916 120.032 123.695 126.137 132.25301 138.567">product_and_manufacturing_</tspan></text>
</g><g
           transform="matrix(1,0,0,-1,82.75,82.5)"
           id="g122"><text
             id="text124"
             style="font-variant:normal;font-weight:normal;font-size:11px;font-family:HelveticaNeue;-inkscape-font-specification:HelveticaNeue;writing-mode:lr-tb;fill:#000000;fill-opacity:1;fill-rule:nonzero;stroke:none"
             transform="translate(-77.25,-2.307999)"><tspan
               id="tspan126"
               y="0"
               x="0 2.4419999 8.5579996 11.814 18.128 21.791 31.174 37.081001 40.546001 42.987999 49.301998 55.417999 60.917999 69.255997 71.697998 75.163002 81.278999 86.778999 92.894997 99.209 108.592 111.034 117.15 123.057 125.499">information_with_nominal_</tspan></text>
</g><g
           transform="matrix(1,0,0,-1,82.75,82.5)"
           id="g128"><text
             id="text130"
             style="font-variant:normal;font-weight:normal;font-size:11px;font-family:HelveticaNeue;-inkscape-font-specification:HelveticaNeue;writing-mode:lr-tb;fill:#000000;fill-opacity:1;fill-rule:nonzero;stroke:none"
             transform="translate(-77.25,10)"><tspan
               id="tspan132"
               y="0"
               x="0 6.1160002 12.639 18.139 27.521999 33.835999 40.359001 46.265999 48.708">3d_models</tspan></text>
</g><g
           transform="matrix(1,0,0,-1,82.75,82.5)"
           id="g134"><text
             id="text136"
             style="font-variant:normal;font-weight:normal;font-size:11px;font-family:HelveticaNeue;-inkscape-font-specification:HelveticaNeue;writing-mode:lr-tb;fill:#000000;fill-opacity:1;fill-rule:nonzero;stroke:none"
             transform="translate(-77.25,22.308)"><tspan
               id="tspan138"
               y="0"
               x="0 2.849 9.9770002 18.337 22 28.313999 35.442001 41.557999 47.674 53.790001 59.905998 66.022003 70.301003 76.417 82.532997 88.649002">ISO/TS10303-1811</tspan></text>
</g><g
           transform="matrix(1,0,0,-1,-79,318)"
           id="g140"><path
             id="path142"
             style="fill:none;stroke:#000000;stroke-width:1;stroke-linecap:round;stroke-linejoin:round;stroke-miterlimit:10;stroke-dasharray:none;stroke-opacity:1"
             d="m 79.5,281.5 165,0 0,36 -165,0 0,-36 z" /></g><g
           transform="matrix(1,0,0,-1,82.75,19)"
           id="g144"><text
             id="text146"
             style="font-variant:normal;font-weight:normal;font-size:11px;font-family:HelveticaNeue;-inkscape-font-specification:HelveticaNeue;writing-mode:lr-tb;fill:#000000;fill-opacity:1;fill-rule:nonzero;stroke:none"
             transform="translate(-77.25,-8.461998)"><tspan
               id="tspan148"
               y="0"
               x="0 6.5229998 9.9879999 16.302 22.825001 28.941 34.848 38.313 43.813 49.720001 55.835999 62.359001 67.859001 77.241997 83.149002 89.264999 95.380997 98.637001 104.544 110.451 113.916 120.032 123.695 126.137 132.25301 138.567">product_and_manufacturing_</tspan></text>
</g><g
           transform="matrix(1,0,0,-1,82.75,19)"
           id="g150"><text
             id="text152"
             style="font-variant:normal;font-weight:normal;font-size:11px;font-family:HelveticaNeue;-inkscape-font-specification:HelveticaNeue;writing-mode:lr-tb;fill:#000000;fill-opacity:1;fill-rule:nonzero;stroke:none"
             transform="translate(-77.25,3.846001)"><tspan
               id="tspan154"
               y="0"
               x="0 2.4419999 8.5579996 11.814 18.128 21.791 31.174 37.081001 40.546001 42.987999 49.301998 55.417999 60.917999 66.417999 68.860001 74.766998 83.105003 88.605003 94.512001 100.826 106.942 110.407 116.314 122.012">information_view_context</tspan></text>
</g><g
           transform="matrix(1,0,0,-1,82.75,19)"
           id="g156"><text
             id="text158"
             style="font-variant:normal;font-weight:normal;font-size:11px;font-family:HelveticaNeue;-inkscape-font-specification:HelveticaNeue;writing-mode:lr-tb;fill:#000000;fill-opacity:1;fill-rule:nonzero;stroke:none"
             transform="translate(-77.25,16.154)"><tspan
               id="tspan160"
               y="0"
               x="0 2.849 9.9770002 18.337 22 28.313999 35.442001 38.5 44.616001 50.731998 56.848 62.964001 69.080002 73.359001 79.474998 85.591003 91.707001">ISO/TS 10303-1810</tspan></text>
</g><g
           transform="matrix(1,0,0,-1,-79,318)"
           id="g162"><path
             id="path164"
             style="fill:none;stroke:#000000;stroke-width:1;stroke-linecap:round;stroke-linejoin:round;stroke-miterlimit:10;stroke-dasharray:none;stroke-opacity:1"
             d="m 79.5,107.5 165,0 0,79 -165,0 0,-79 z" /></g><g
           transform="matrix(1,0,0,-1,82.75,171.5)"
           id="g166"><text
             id="text168"
             style="font-variant:normal;font-weight:normal;font-size:11px;font-family:HelveticaNeue;-inkscape-font-specification:HelveticaNeue;writing-mode:lr-tb;fill:#000000;fill-opacity:1;fill-rule:nonzero;stroke:none"
             transform="translate(-77.25,-20.77)"><tspan
               id="tspan170"
               y="0"
               x="0 9.5810003 15.895 22.417999 28.325001 30.767 36.266998 42.790001 48.696999 54.196999 60.104 66.626999 72.126999 78.242996 84.765999">Model_based_3d_</tspan></text>
</g><g
           transform="matrix(1,0,0,-1,82.75,171.5)"
           id="g172"><text
             id="text174"
             style="font-variant:normal;font-weight:normal;font-size:11px;font-family:HelveticaNeue;-inkscape-font-specification:HelveticaNeue;writing-mode:lr-tb;fill:#000000;fill-opacity:1;fill-rule:nonzero;stroke:none"
             transform="translate(-77.25,-8.461998)"><tspan
               id="tspan176"
               y="0"
               x="0 6.3140001 12.221 18.535 27.917999 33.825001 37.290001 40.952999 43.395 49.301998 55.209 57.651001">geometrical_</tspan></text>
</g><g
           transform="matrix(1,0,0,-1,82.75,171.5)"
           id="g178"><text
             id="text180"
             style="font-variant:normal;font-weight:normal;font-size:11px;font-family:HelveticaNeue;-inkscape-font-specification:HelveticaNeue;writing-mode:lr-tb;fill:#000000;fill-opacity:1;fill-rule:nonzero;stroke:none"
             transform="translate(-77.25,3.846001)"><tspan
               id="tspan182"
               y="0"
               x="0 6.5229998 8.9650002 18.348 24.254999 30.371 35.870998 38.313 44.626999 50.743 53.185001 59.300999 65.614998 71.114998 77.022003 83.138 89.661003">dimensioning_and_</tspan></text>
</g><g
           transform="matrix(1,0,0,-1,82.75,171.5)"
           id="g184"><text
             id="text186"
             style="font-variant:normal;font-weight:normal;font-size:11px;font-family:HelveticaNeue;-inkscape-font-specification:HelveticaNeue;writing-mode:lr-tb;fill:#000000;fill-opacity:1;fill-rule:nonzero;stroke:none"
             transform="translate(-77.25,16.154)"><tspan
               id="tspan188"
               y="0"
               x="0 3.4649999 9.7790003 12.221 18.128 21.791 27.698 33.813999 39.721001 42.162998 48.278999 54.592999 60.092999 63.557999 69.464996 75.987999 79.453003 85.360001 90.860001 96.766998 102.883 106.348 112.255 115.72 118.162 124.476">tolerancing_representation</tspan></text>
</g><g
           transform="matrix(1,0,0,-1,82.75,171.5)"
           id="g190"><text
             id="text192"
             style="font-variant:normal;font-weight:normal;font-size:11px;font-family:HelveticaNeue;-inkscape-font-specification:HelveticaNeue;writing-mode:lr-tb;fill:#000000;fill-opacity:1;fill-rule:nonzero;stroke:none"
             transform="translate(-77.25,28.462)"><tspan
               id="tspan194"
               y="0"
               x="0 2.849 9.9770002 18.337 22 28.313999 35.442001 38.5 44.616001 50.731998 56.848 62.964001 69.080002 73.359001 79.474998 85.591003 91.707001">ISO/TS 10303-1816</tspan></text>
</g><g
           transform="matrix(1,0,0,-1,-79,318)"
           id="g196"><path
             id="path198"
             style="fill:none;stroke:#000000;stroke-width:1;stroke-linecap:round;stroke-linejoin:round;stroke-miterlimit:10;stroke-dasharray:none;stroke-opacity:1"
             d="M 276.125,52 276,317" /></g><g
           transform="matrix(1,0,0,-1,-79,318)"
           id="g200"><path
             id="path202"
             style="fill:none;stroke:#000000;stroke-width:1;stroke-linecap:round;stroke-linejoin:round;stroke-miterlimit:10;stroke-dasharray:none;stroke-opacity:1"
             d="m 244,71.13455 32.1158,0.443" /></g><g
           transform="matrix(1,0,0,-1,-79,318)"
           id="g204"><path
             id="path206"
             style="fill:none;stroke:#000000;stroke-width:1;stroke-linecap:round;stroke-linejoin:round;stroke-miterlimit:10;stroke-dasharray:none;stroke-opacity:1"
             d="m 244.9627,145.5 31.1182,0.0159" /></g><g
           transform="matrix(1,0,0,-1,-79,318)"
           id="g208"><path
             id="path210"
             style="fill:none;stroke:#000000;stroke-width:1;stroke-linecap:round;stroke-linejoin:round;stroke-miterlimit:10;stroke-dasharray:none;stroke-opacity:1"
             d="m 244,235.6117 32.0384,0.0436" /></g><g
           transform="matrix(1,0,0,-1,-79,318)"
           id="g212"><path
             id="path214"
             style="fill:none;stroke:#000000;stroke-width:1;stroke-linecap:round;stroke-linejoin:round;stroke-miterlimit:10;stroke-dasharray:none;stroke-opacity:1"
             d="M 244.4999,296.338 276,295.8" /></g><g
           transform="matrix(1,0,0,-1,-79,318)"
           id="g216"><path
             id="path218"
             style="fill:none;stroke:#000000;stroke-width:1;stroke-linecap:round;stroke-linejoin:round;stroke-miterlimit:10;stroke-dasharray:none;stroke-opacity:1"
             d="m 276,71.51505 31.1007,-0.37928" /></g><path
           id="path220"
           style="fill:#000000;fill-opacity:1;fill-rule:nonzero;stroke:none"
           d="m 236.1001,246.9618 -8.0359,2.9022 0.0731,-5.9995 7.9628,3.0973 z" /><g
           transform="matrix(1,0,0,-1,-79,318)"
           id="g222"><path
             id="path224"
             style="fill:none;stroke:#000000;stroke-width:1;stroke-linecap:butt;stroke-linejoin:miter;stroke-miterlimit:10;stroke-dasharray:none;stroke-opacity:1"
             d="m 315.1001,71.03822 -8.0359,-2.90223 0.0731,5.99956 7.9628,-3.09733 z" /></g><g
           transform="matrix(1,0,0,-1,-79,318)"
           id="g226"><path
             id="path228"
             style="fill:none;stroke:#000000;stroke-width:1;stroke-linecap:round;stroke-linejoin:round;stroke-miterlimit:10;stroke-dasharray:none;stroke-opacity:1"
             d="M 276.0934,119.0197 307.1,119.015" /></g><path
           id="path230"
           style="fill:#000000;fill-opacity:1;fill-rule:nonzero;stroke:none"
           d="m 236.1,198.9862 -8.0005,2.9988 0.001,-6 7.9995,3.0012 z" /><g
           transform="matrix(1,0,0,-1,-79,318)"
           id="g232"><path
             id="path234"
             style="fill:none;stroke:#000000;stroke-width:1;stroke-linecap:butt;stroke-linejoin:miter;stroke-miterlimit:10;stroke-dasharray:none;stroke-opacity:1"
             d="m 315.1,119.0138 -8.0005,-2.9988 0.001,6 7.9995,-3.0012 z" /></g><g
           transform="matrix(1,0,0,-1,-79,318)"
           id="g236"><path
             id="path238"
             style="fill:none;stroke:#000000;stroke-width:1;stroke-linecap:round;stroke-linejoin:round;stroke-miterlimit:10;stroke-dasharray:none;stroke-opacity:1"
             d="M 276.0703,167.9456 307.1,167.9587" /></g><path
           id="path240"
           style="fill:#000000;fill-opacity:1;fill-rule:nonzero;stroke:none"
           d="m 236.1,150.038 -7.9987,3.0033 -0.003,-6 8.0013,2.9967 z" /><g
           transform="matrix(1,0,0,-1,-79,318)"
           id="g242"><path
             id="path244"
             style="fill:none;stroke:#000000;stroke-width:1;stroke-linecap:butt;stroke-linejoin:miter;stroke-miterlimit:10;stroke-dasharray:none;stroke-opacity:1"
             d="m 315.1,167.962 -7.9987,-3.0033 -0.003,6 8.0013,-2.9967 z" /></g><g
           transform="matrix(1,0,0,-1,-79,318)"
           id="g246"><path
             id="path248"
             style="fill:none;stroke:#000000;stroke-width:1;stroke-linecap:round;stroke-linejoin:round;stroke-miterlimit:10;stroke-dasharray:none;stroke-opacity:1"
             d="M 276.0471,217.1698 307.1,217.1291" /></g><path
           id="path250"
           style="fill:#000000;fill-opacity:1;fill-rule:nonzero;stroke:none"
           d="m 236.1,100.8814 -8.0039,2.9895 0.008,-5.99998 7.9961,3.01048 z" /><g
           transform="matrix(1,0,0,-1,-79,318)"
           id="g252"><path
             id="path254"
             style="fill:none;stroke:#000000;stroke-width:1;stroke-linecap:butt;stroke-linejoin:miter;stroke-miterlimit:10;stroke-dasharray:none;stroke-opacity:1"
             d="m 315.1,217.1186 -8.0039,-2.9895 0.008,6 7.9961,-3.0105 z" /></g><g
           transform="matrix(1,0,0,-1,-79,318)"
           id="g256"><path
             id="path258"
             style="fill:none;stroke:#ffffff;stroke-width:4;stroke-linecap:square;stroke-linejoin:round;stroke-miterlimit:10;stroke-dasharray:none;stroke-opacity:1"
             d="m 276,51.775 1,17.14316 0,0" /></g><g
           transform="matrix(1,0,0,-1,-79,318)"
           id="g260"><path
             id="path262"
             style="fill:none;stroke:#ffffff;stroke-width:4;stroke-linecap:square;stroke-linejoin:round;stroke-miterlimit:10;stroke-dasharray:none;stroke-opacity:1"
             d="m 277,298.2 0.2375,17.74 0.7625,-7.7068" /></g></g></g></g></svg>